{
	"asset":{
		"generator":"Khronos glTF Blender I/O v4.4.48",
		"version":"2.0"
	},
	"scene":0,
	"scenes":[
		{
			"name":"Scene",
			"nodes":[
				0
			]
		}
	],
	"nodes":[
		{
			"mesh":0,
			"name":"mountain"
		}
	],
	"meshes":[
		{
			"name":"Object_4",
			"primitives":[
				{
					"attributes":{
						"POSITION":0,
						"NORMAL":1,
						"TEXCOORD_0":2,
						"TANGENT":3
					},
					"indices":4
				}
			]
		}
	],
	"accessors":[
		{
			"bufferView":0,
			"componentType":5126,
			"count":270857,
			"max":[
				10,
				3.850698709487915,
				10.000000953674316
			],
			"min":[
				-10,
				-0.044534116983413696,
				-10.000000953674316
			],
			"type":"VEC3"
		},
		{
			"bufferView":1,
			"componentType":5126,
			"count":270857,
			"type":"VEC3"
		},
		{
			"bufferView":2,
			"componentType":5126,
			"count":270857,
			"type":"VEC2"
		},
		{
			"bufferView":3,
			"componentType":5126,
			"count":270857,
			"type":"VEC4"
		},
		{
			"bufferView":4,
			"componentType":5125,
			"count":1572864,
			"type":"SCALAR"
		}
	],
	"bufferViews":[
		{
			"buffer":0,
			"byteLength":3250284,
			"byteOffset":0,
			"target":34962
		},
		{
			"buffer":0,
			"byteLength":3250284,
			"byteOffset":3250284,
			"target":34962
		},
		{
			"buffer":0,
			"byteLength":2166856,
			"byteOffset":6500568,
			"target":34962
		},
		{
			"buffer":0,
			"byteLength":4333712,
			"byteOffset":8667424,
			"target":34962
		},
		{
			"buffer":0,
			"byteLength":6291456,
			"byteOffset":13001136,
			"target":34963
		}
	],
	"buffers":[
		{
			"byteLength":19292592,
			"uri":"mountain.bin"
		}
	]
}
