{
	"asset":{
		"generator":"Khronos glTF Blender I/O v4.4.48",
		"version":"2.0"
	},
	"scene":0,
	"scenes":[
		{
			"name":"Scene",
			"nodes":[
				0
			]
		}
	],
	"nodes":[
		{
			"mesh":0,
			"name":"jet"
		}
	],
	"meshes":[
		{
			"name":"defaultMaterial.066",
			"primitives":[
				{
					"attributes":{
						"POSITION":0,
						"NORMAL":1,
						"TEXCOORD_0":2,
						"TANGENT":3
					},
					"indices":4
				}
			]
		}
	],
	"accessors":[
		{
			"bufferView":0,
			"componentType":5126,
			"count":13433,
			"max":[
				4.748318195343018,
				3.7404236793518066,
				8.726896286010742
			],
			"min":[
				-4.748318195343018,
				-0.8916793465614319,
				-6.54346227645874
			],
			"type":"VEC3"
		},
		{
			"bufferView":1,
			"componentType":5126,
			"count":13433,
			"type":"VEC3"
		},
		{
			"bufferView":2,
			"componentType":5126,
			"count":13433,
			"type":"VEC2"
		},
		{
			"bufferView":3,
			"componentType":5126,
			"count":13433,
			"type":"VEC4"
		},
		{
			"bufferView":4,
			"componentType":5123,
			"count":45870,
			"type":"SCALAR"
		}
	],
	"bufferViews":[
		{
			"buffer":0,
			"byteLength":161196,
			"byteOffset":0,
			"target":34962
		},
		{
			"buffer":0,
			"byteLength":161196,
			"byteOffset":161196,
			"target":34962
		},
		{
			"buffer":0,
			"byteLength":107464,
			"byteOffset":322392,
			"target":34962
		},
		{
			"buffer":0,
			"byteLength":214928,
			"byteOffset":429856,
			"target":34962
		},
		{
			"buffer":0,
			"byteLength":91740,
			"byteOffset":644784,
			"target":34963
		}
	],
	"buffers":[
		{
			"byteLength":736524,
			"uri":"jet.bin"
		}
	]
}
